<?xml version="1.0" encoding="UTF-8" standalone="no"?>
<!-- Created with Inkscape (http://www.inkscape.org/) -->

<svg
   xmlns:dc="http://purl.org/dc/elements/1.1/"
   xmlns:cc="http://creativecommons.org/ns#"
   xmlns:rdf="http://www.w3.org/1999/02/22-rdf-syntax-ns#"
   xmlns:svg="http://www.w3.org/2000/svg"
   xmlns="http://www.w3.org/2000/svg"
   xmlns:sodipodi="http://sodipodi.sourceforge.net/DTD/sodipodi-0.dtd"
   xmlns:inkscape="http://www.inkscape.org/namespaces/inkscape"
   width="256px"
   height="256px"
   viewBox="0 0 256 256"
   version="1.1"
   id="SVGRoot"
   inkscape:version="0.92.2 2405546, 2018-03-11"
   sodipodi:docname="icon.svg">
  <sodipodi:namedview
     id="base"
     pagecolor="#ffffff"
     bordercolor="#666666"
     borderopacity="1.0"
     inkscape:pageopacity="0.0"
     inkscape:pageshadow="2"
     inkscape:zoom="2"
     inkscape:cx="172.52395"
     inkscape:cy="105.95332"
     inkscape:document-units="px"
     inkscape:current-layer="layer1"
     showgrid="false"
     inkscape:window-width="1670"
     inkscape:window-height="1014"
     inkscape:window-x="5"
     inkscape:window-y="5"
     inkscape:window-maximized="0"
     inkscape:grid-bbox="true" />
  <defs
     id="defs36" />
  <metadata
     id="metadata39">
    <rdf:RDF>
      <cc:Work
         rdf:about="">
        <dc:format>image/svg+xml</dc:format>
        <dc:type
           rdf:resource="http://purl.org/dc/dcmitype/StillImage" />
        <dc:title></dc:title>
      </cc:Work>
    </rdf:RDF>
  </metadata>
  <g
     id="layer1"
     inkscape:groupmode="layer"
     inkscape:label="Capa 1">
    <circle
       style="fill:#ff5555;stroke-width:0.9864341"
       id="path119"
       cx="128.75"
       cy="127.75"
       r="127.25" />
    <path
       style="fill:#ffffff"
       d="m 179.63618,235.25 c -0.16755,-3.99877 0.69892,-4.07533 4.24406,-0.375 l 2.75443,2.875 h -2.62636 c -1.78721,0 -2.4617,-0.42909 -2.11101,-1.34297 0.28345,-0.73864 0.11718,-1.58907 -0.36948,-1.88984 -0.48666,-0.30077 -1.08072,0.47232 -1.32014,1.71798 -0.31826,1.6558 -0.47194,1.39089 -0.5715,-0.98517 z m -79.5994,0 c 0.41292,-0.9625 0.96517,-7.25586 1.22722,-13.98525 0.43143,-11.07896 0.30772,-12.3 -1.30906,-12.92041 -1.26795,-0.48656 -2.3898,0.11621 -3.87023,2.07948 -1.14659,1.52055 -3.50221,4.29724 -5.23471,6.17041 -6.10621,6.60201 -12.70922,3.70239 -15.43092,-6.77627 -1.76484,-6.79471 -1.40034,-8.99877 1.98904,-12.02717 1.70053,-1.51943 3.09188,-2.98238 3.09188,-3.25101 0,-0.26863 -1.36933,-1.19653 -3.04296,-2.062 -1.67363,-0.86546 -3.46249,-2.67702 -3.97525,-4.02568 C 72.96903,187.10345 72.06181,186 71.46573,186 c -0.59607,0 -0.83176,-0.40775 -0.52375,-0.90612 0.67221,-1.08767 4.78208,-0.18844 5.7318,1.2541 0.44195,0.67128 1.21613,0.57331 2.25,-0.28473 1.33897,-1.11124 1.5808,-1.0263 1.60663,0.56431 0.0286,1.76022 0.10039,1.75257 1.19809,-0.12756 1.13311,-1.9408 1.18483,-1.9282 1.74717,0.42586 0.8705,3.64405 2.65988,3.57467 3.52822,-0.1368 0.72995,-3.11995 0.81301,-2.98574 1.61551,2.6103 1.02259,7.13087 1.45988,7.71775 2.96538,3.97987 1.94948,-4.84021 5.14418,-10.71784 7.6071,-13.9956 1.79127,-2.3839 3.37108,-3.25748 6.72138,-3.71669 6.29923,-0.8634 12.41457,-3.54912 13.11641,-5.76043 0.33281,-1.04858 1.24978,-1.90651 2.03772,-1.90651 2.72102,0 1.65936,-5.541 -1.68888,-8.81452 -3.10096,-3.03176 -3.12055,-3.11642 -2.97823,-12.86866 0.27144,-18.59949 1.36913,-21.88199 6.53101,-19.53008 1.80172,0.82092 2.65736,0.69604 3.92645,-0.57305 1.49693,-1.49693 1.73971,-1.47122 3.13244,0.3318 3.86767,5.00708 7.41244,12.59192 9.0119,19.28302 1.79972,7.52881 1.77677,7.73307 -1.61875,14.40792 -1.7219,3.38488 -0.8867,6.4533 2.78585,10.23481 3.87272,3.9876 10.36687,7.47001 13.99903,7.5068 5.84658,0.0592 8.5575,4.52367 10.19115,16.78315 0.60547,4.54366 1.78481,9.58381 2.62075,11.20034 0.83594,1.61653 1.51989,3.42666 1.51989,4.02251 0,0.59585 1.35,2.40303 3,4.01596 1.65,1.61293 3,3.39776 3,3.9663 0,0.56853 0.45,1.0337 1,1.0337 0.55,0 1,-0.43588 1,-0.96862 0,-0.53273 0.62948,-0.72706 1.39885,-0.43182 0.76937,0.29523 1.69592,0.0561 2.05902,-0.53139 0.36309,-0.58749 2.09611,-1.03771 3.85115,-1.00049 3.02248,0.0641 3.07217,0.12498 0.94098,1.15281 -1.2375,0.59683 -2.25,1.92602 -2.25,2.95376 0,1.02775 -1.125,2.38121 -2.5,3.0077 -1.94995,0.88846 -2.5,1.88384 -2.5,4.52402 0,4.28626 -4.28781,9.12998 -6.47515,7.31465 -1.06749,-0.88594 -1.95018,-0.78804 -3.79529,0.42093 -2.2114,1.44896 -2.5321,1.43412 -3.99732,-0.18493 -2.07722,-2.2953 -3.72413,-6.70205 -3.76404,-10.07172 -0.0175,-1.47669 -0.6925,-3.55841 -1.5,-4.62603 -0.80751,-1.06762 -1.48415,-3.09262 -1.50364,-4.5 C 156.44508,214.65149 155.78602,212.375 155,211 c -1.30112,-2.27607 -1.4323,-1.45337 -1.46456,9.1849 -0.0195,6.4267 0.40342,12.8392 0.93981,14.25 L 155.4505,237 h -28.08224 c -26.36433,0 -28.03631,-0.10706 -27.33148,-1.75 z m 83.7355,-31.1736 c -9.5372,-2.46764 -9.36067,-16.80096 0.22967,-18.64878 2.51276,-0.48414 3.6942,0.0607 7.25,3.34338 4.75482,4.38962 5.57888,8.39175 2.49805,12.132 -2.04475,2.48241 -6.80137,3.99524 -9.97772,3.1734 z M 187.5,188.61663 c 0,-1.76832 -3.22147,-2.63182 -5.35797,-1.43618 C 179.42565,188.70062 180.28189,190 184,190 c 2.3133,0 3.5,-0.46904 3.5,-1.38337 z m 7.75,-0.009 c -2.64079,-2.00464 -2.1063,-2.62812 1.25,-1.45811 1.65,0.5752 3,1.45179 3,1.94799 0,1.30628 -2.22112,1.05026 -4.25,-0.48988 z M 66.0577,176.45876 c -2.03548,-0.69977 -4.23116,-1.93331 -4.87929,-2.74121 -0.64813,-0.8079 -1.92817,-1.86235 -2.84455,-2.34323 -1.11291,-0.58401 0.85085,-0.96136 5.91432,-1.13645 11.5981,-0.40105 17.31201,-4.67783 20.72312,-15.51094 l 1.33096,-4.22693 0.0769,4 c 0.0423,2.2 -0.8,5.93214 -1.87178,8.29364 -1.58566,3.49377 -2.93218,4.74822 -7.22803,6.73376 -3.45849,1.59852 -4.24465,2.22487 -2.27936,1.81602 5.81578,-1.20988 8.60372,-3.37306 11.15915,-8.65848 2.43336,-5.03293 2.49212,-5.07819 2.00438,-1.54377 -1.42906,10.35582 -13.07183,18.42333 -22.10582,15.31759 z M 185.75,162.05644 c -1.2375,-1.03236 -2.25,-2.50239 -2.25,-3.26673 0,-0.76434 -0.496,-1.88571 -1.10223,-2.49194 -1.44415,-1.44415 2.75191,-7.29777 5.23127,-7.29777 0.96411,0 2.03104,-0.45 2.37096,-1 0.37272,-0.60308 -0.97143,-1 -3.38642,-1 -4.04837,0 -5.57377,1.43525 -7.70533,7.25 -0.79519,2.16923 -1.79704,2.19659 -4.94343,0.13499 -2.04473,-1.33976 -2.46482,-2.42116 -2.46482,-6.34501 0,-5.92948 1.88244,-7.79969 8.41588,-8.36117 4.15855,-0.35739 5.3254,-0.96589 8.03032,-4.18776 2.81991,-3.35884 3.40392,-3.64163 5.35929,-2.59515 1.20698,0.64596 2.19451,1.50998 2.19451,1.92005 0,0.41006 1.35,1.25514 3,1.87795 2.03322,0.76745 3,1.81523 3,3.25135 0,2.91292 -2.3436,8.26732 -4.3451,9.92719 -2.35367,1.95195 -2.07138,2.78672 1.3451,3.97772 3.57356,1.24574 3.82024,2.64794 0.75,4.26322 -1.2375,0.65107 -3.52203,2.2419 -5.07673,3.53519 -3.38652,2.81711 -5.41742,2.91545 -8.42327,0.40787 z M 203,151 c 2.74909,-1.18132 4.32797,-1.18132 2.5,0 -0.825,0.53316 -2.175,0.94464 -3,0.9144 -0.98906,-0.0362 -0.81874,-0.34772 0.5,-0.9144 z m -1.5,-3.02747 c 0,-0.46997 0.39812,-1.10055 0.8847,-1.40127 1.4186,-0.87675 1.93644,-6.86684 0.80789,-9.34524 -0.56951,-1.25068 -2.19582,-2.56092 -3.61403,-2.91163 -1.41821,-0.35071 -3.1937,-1.50364 -3.94553,-2.56207 -0.82963,-1.16794 -2.10717,-1.73084 -3.25,-1.43198 -2.29325,0.59969 -2.43242,-0.62809 -0.3116,-2.74891 1.95559,-1.95559 1.72629,-1.97035 6.3957,0.4118 2.1381,1.09078 4.17792,2.89842 4.53294,4.01699 0.35502,1.11857 2.18774,2.67815 4.07271,3.46574 3.63418,1.51846 4.35795,3.51671 1.98658,5.48477 -0.79235,0.6576 -1.57985,2.37047 -1.75,3.80639 -0.22268,1.87921 -1.07992,2.81519 -3.05936,3.34033 -1.5125,0.40127 -2.75,0.34506 -2.75,-0.12492 z m 7.82179,-1.87256 c 0.2679,-1.42998 1.12991,-3.59044 1.91558,-4.80101 1.91105,-2.94458 0.83868,-5.81771 -2.72188,-7.29254 -1.60489,-0.66477 -3.6253,-2.28817 -4.48979,-3.60755 -1.71263,-2.6138 -0.54154,-3.32781 1.4743,-0.89887 0.68469,0.825 1.68424,1.5 2.22123,1.5 1.77569,0 6.50437,5.87802 7.09189,8.81561 0.8581,4.29048 -0.1175,6.67208 -3.21156,7.83995 -2.63087,0.99304 -2.74292,0.91659 -2.27977,-1.55559 z M 170.5,139.48643 c 0,-0.83246 -0.54547,-2.387 -1.21215,-3.45452 -1.5011,-2.40366 -0.28178,-3.84004 2.01011,-2.36793 2.52989,1.62497 5.8625,-0.55283 11.70204,-7.64709 4.27108,-5.18878 5.36446,-5.98988 7.5,-5.49509 1.375,0.31858 3.92864,0.54469 5.67475,0.50246 3.62909,-0.0878 4.73885,1.09723 3.79946,4.05701 -0.45705,1.44002 -1.15628,1.8562 -2.31455,1.3776 -4.36539,-1.80379 -5.20032,-1.60602 -8.39511,1.98853 -1.7955,2.02018 -3.50834,4.6521 -3.8063,5.84871 -0.41796,1.6785 -1.75904,2.44597 -5.86885,3.35862 -2.9299,0.65063 -5.81361,1.66948 -6.40824,2.26411 -1.52732,1.52732 -2.68116,1.34123 -2.68116,-0.43241 z m -84.96673,-9.6198 c -0.0383,-1.88106 -2.24773,-2.65132 -6.82409,-2.37907 -3.09621,0.18419 -4.42289,-0.91632 -2.05582,-1.70535 0.79402,-0.26467 0.62279,-1.19421 -0.54958,-2.98347 -1.33297,-2.03437 -1.4206,-2.7128 -0.40336,-3.12275 0.97648,-0.39352 1.00772,-0.73211 0.12565,-1.36186 -0.81565,-0.58234 -0.43415,-1.18726 1.25,-1.98205 1.33316,-0.62915 2.42393,-0.75037 2.42393,-0.26938 0,0.48099 0.74882,0.58718 1.66404,0.23598 1.03675,-0.39784 1.41787,-0.24023 1.01102,0.41807 -0.35917,0.58115 -0.0466,1.55993 0.69458,2.17506 1.02369,0.84958 1.97287,0.62662 3.9487,-0.92757 2.10978,-1.65956 2.43644,-2.47903 1.72943,-4.3386 -0.49576,-1.30394 -0.49541,-2.90134 8.1e-4,-3.70424 0.71831,-1.16225 1.14715,-1.05916 2.42727,0.58347 1.49672,1.92057 1.53154,1.89244 0.93164,-0.75263 -0.34275,-1.51127 -0.31939,-3.53627 0.0519,-4.5 0.6428,-1.66841 0.7221,-1.66851 1.65754,-0.002 0.54034,0.9625 1.46518,1.75 2.0552,1.75 0.68716,0 0.62529,-0.53915 -0.17214,-1.5 -1.5992,-1.92692 0.53186,-4.85568 3.05337,-4.19629 1.17344,0.30686 1.56804,-0.0554 1.28567,-1.18048 -0.29187,-1.162835 1.61023,-2.696247 6.70629,-5.4064 3.91253,-2.080743 6.9442,-3.430743 6.73703,-3 -0.20717,0.430744 -1.01814,2.13317 -1.80215,3.78317 -2.84481,5.98704 -16.18737,20.5 -18.84678,20.5 -2.32844,0 -4.76342,3.49261 -3.13613,4.49833 0.55148,0.34084 1.4203,0.36161 1.9307,0.0462 0.90949,-0.56209 1.75643,1.22059 2.55844,5.38509 0.34024,1.76674 0.006,2.01742 -2.16701,1.62344 -1.8115,-0.32848 -3.11264,0.18491 -4.41114,1.74053 -1.48027,1.77338 -1.84828,1.88586 -1.87502,0.57307 z m 76.72791,-19.06045 c -0.26272,-0.77474 -2.02353,-1.30618 -4.32769,-1.30618 -2.97385,0 -3.97038,-0.43164 -4.24993,-1.84081 C 153.23223,105.38416 149.9531,102 148.2,102 c -0.715,0 -1.80193,0.50194 -2.41541,1.11541 -0.82055,0.82055 -2.02188,0.42402 -4.54439,-1.5 C 139.35426,100.17694 137.11434,99 136.2626,99 c -0.85174,0 -1.83244,-0.739618 -2.17933,-1.643595 -0.58244,-1.517826 0.51821,-3.216544 4.28843,-6.618636 0.75444,-0.680773 2.62248,-2.475269 4.15121,-3.987769 1.52873,-1.5125 3.28007,-2.75 3.89187,-2.75 0.6118,0 2.03366,-0.5625 3.15969,-1.25 1.7476,-1.066994 2.26474,-0.95719 3.53225,0.75 1.34259,1.808311 1.28883,2.15913 -0.5609,3.660293 -2.00908,1.630479 -2.77135,3.870473 -1.29582,3.807904 1.25138,-0.05306 3.88912,-2.374529 4.50882,-3.968197 0.42609,-1.095748 0.60477,-0.960997 0.66301,0.5 0.0439,1.1 1.54188,3.64279 3.32895,5.650645 2.2791,2.560675 3.24922,4.641175 3.24922,6.968235 0,2.07053 0.85983,4.24535 2.28743,5.78576 1.25808,1.35749 2.15348,3.17179 1.98978,4.03177 -0.37046,1.94613 -4.4133,2.64715 -5.01603,0.86977 z M 158,96 c -0.48382,-0.782843 -1.05907,-0.840931 -1.72574,-0.174265 -0.55,0.55 -0.67341,1.528419 -0.27426,2.174265 0.48382,0.782843 1.05907,0.840931 1.72574,0.174265 0.55,-0.55 0.67341,-1.528419 0.27426,-2.174265 z m -2.35,-3.5 c 0,-0.5225 -0.48375,-1.11125 -1.075,-1.308333 -0.59125,-0.197084 -1.075,0.391666 -1.075,1.308333 0,0.916667 0.48375,1.505417 1.075,1.308333 C 155.16625,93.61125 155.65,93.0225 155.65,92.5 Z m -9.15,-4 c 0,-0.825 -0.42344,-1.5 -0.94098,-1.5 -1.26098,0 -2.1641,1.561589 -1.36517,2.36052 C 145.32004,90.486704 146.5,90.04641 146.5,88.5 Z m 4.80833,-3.575 C 151.11125,84.33375 150.5225,83.85 150,83.85 c -0.5225,0 -1.11125,0.48375 -1.30833,1.075 C 148.49458,85.51625 149.08333,86 150,86 c 0.91667,0 1.50542,-0.48375 1.30833,-1.075 z m 57.81139,5.389405 c -2.76357,-3.249933 -3.03895,-5.730524 -0.39389,-3.548099 0.95154,0.785106 3.80627,-0.984922 11.27417,-6.990347 8.21051,-6.602609 9.96354,-8.4855 9.79625,-10.521943 -0.1974,-2.402888 -0.14254,-2.424883 1.75809,-0.704838 1.83563,1.661218 1.85485,1.893686 0.29877,3.613136 C 230.28642,73.893479 230.31875,74 232.41075,74 c 3.53591,0 6.14791,1.896135 7.68733,5.580491 1.2139,2.905287 1.22447,3.90824 0.0702,6.669509 -1.88897,4.519034 -4.2781,6.204545 -8.79463,6.204545 -4.87755,0 -9.09909,-3.811955 -9.26275,-8.364048 -0.061,-1.697265 -0.33594,-3.077707 -0.61094,-3.067649 -0.275,0.01006 -2.73959,1.97741 -5.47687,4.371895 -4.22506,3.695947 -4.7842,4.585758 -3.70144,5.890405 0.70148,0.845238 0.91608,1.734716 0.47687,1.976618 -0.43921,0.241902 -2.09468,-1.084411 -3.67884,-2.947361 z m 25.76564,-0.444125 c 5.54902,-2.528305 5.64023,-9.841729 0.16746,-13.427626 -7.35509,-4.819239 -15.36512,5.835952 -9.09827,12.102801 2.69047,2.690478 5.13699,3.053403 8.93081,1.324825 z M 30.42168,85.726203 C 18.42637,77.642568 19.25298,60.650044 31.9214,54.896331 48.26273,47.474468 64.11022,65.411434 54.20186,80.11445 50.49673,85.612478 46.04543,88 39.5,88 35.22274,88 32.9517,87.431185 30.42168,85.726203 Z M 46.09893,85.094566 C 52.1615,82.34128 55,77.790258 55,70.82333 c 0,-4.193426 -0.5466,-6.41437 -2.09195,-8.5 C 46.01428,53.019366 34.37453,52.418233 27.15891,60.99352 18.86177,70.854109 26.58604,86.430257 40,86.88785 c 1.1,0.03752 3.84452,-0.769454 6.09893,-1.793284 z m 93.09019,-1.462565 c -0.43255,-1.577399 -0.53956,-3.114899 -0.23779,-3.416666 1.04314,-1.043134 1.69789,0.612499 1.3617,3.443243 L 139.97558,86.5 Z m 51.53529,-9.467249 c -3.6162,-2.971924 -4.12379,-4.212707 -1.43582,-3.509785 1.33148,0.348189 3.79528,-2.144727 9.64028,-9.754184 6.71788,-8.745848 7.68579,-10.487529 6.70293,-12.061347 -1.3517,-2.164416 -0.27086,-2.392823 2.32856,-0.492079 1.27675,0.93358 1.489,1.565909 0.69113,2.059017 -2.10707,1.302242 -1.19072,2.193626 2.25506,2.193626 4.06616,0 6.42503,1.755928 8.26177,6.15 3.50386,8.382329 -6.39591,15.934633 -14.19178,10.826582 -1.44772,-0.948577 -3.08565,-3.025434 -3.63986,-4.615238 l -1.00765,-2.890551 -3.20849,4.214603 c -4.88833,6.421205 -4.99991,6.716717 -3.06919,8.128496 0.9634,0.704452 1.3385,1.536149 0.83357,1.848217 -0.50494,0.312067 -2.37717,-0.631743 -4.16051,-2.097357 z m 24.85251,-7.087829 C 217.18462,65.469231 218.5,63.184615 218.5,62 c 0,-3.028556 -5.2626,-8 -8.46853,-8 -5.52159,0 -9.55943,7.799964 -6.24967,12.072592 3.53198,4.559486 7.87055,4.928907 11.79512,1.004331 z M 67.5,67.545448 c 0,-0.314922 0.50801,-1.386036 1.12891,-2.380253 0.92891,-1.487431 0.46095,-2.813685 -2.64158,-7.486431 C 61.96616,51.622457 61.56401,51.335985 59.7,53.2 c -0.78182,0.781824 -1.2,0.824494 -1.2,0.122445 0,-0.592656 0.68344,-1.644761 1.51876,-2.338012 1.24289,-1.031509 1.87863,-0.934779 3.5,0.532542 1.92405,1.741247 1.98124,1.721883 1.98124,-0.670858 0,-2.83191 2.4747,-6.704747 3.57877,-5.600676 0.40827,0.408264 -0.005,1.56799 -0.91823,2.577169 -2.39226,2.643415 -2.04496,7.147391 0.88343,11.456908 2.16967,3.192955 2.83176,3.589763 4.5,2.696951 3.00872,-1.610217 2.38229,0.592195 -0.79397,2.791471 -3.96913,2.748268 -5.25,3.42591 -5.25,2.777508 z m 119.06037,-10.94042 c -3.87463,-1.399988 -5.51249,-3.797528 -1.95954,-2.86841 1.94139,0.507685 2.13544,0.281771 1.57076,-1.828687 -0.35436,-1.324362 -0.65043,-4.494346 -0.65794,-7.044408 L 185.5,40.227046 178.75,37.721974 172,35.216901 l -4.63968,5.14155 c -3.56732,3.953185 -4.31849,5.326381 -3.25,5.941239 3.11899,1.794819 1.09017,2.476859 -3.11032,1.04561 -4.75488,-1.62015 -6.03831,-3.350542 -2.25,-3.033564 1.70915,0.143009 5.25473,-3.030356 14.75,-13.201519 l 12.5,-13.389783 0.61844,11.389783 c 0.34014,6.264381 0.67764,14.694412 0.75,18.733403 0.11543,6.443075 0.37682,7.407756 2.13156,7.866631 1.1,0.287656 2,0.920528 2,1.40638 0,1.105424 -0.65091,1.038009 -4.93963,-0.511603 z M 184.90701,30.25 c -0.37202,-4.2625 -0.72829,-7.766531 -0.7917,-7.786735 -0.0634,-0.0202 -2.50826,2.524488 -5.43297,5.654872 l -5.31767,5.691608 5.31767,2.043022 c 2.92471,1.123662 5.67393,2.066469 6.10936,2.095127 0.43544,0.02866 0.48732,-3.435394 0.11531,-7.697894 z M 82.1563,53.867465 c -1.01403,-0.589444 -2.49704,-2.635399 -3.29558,-4.546567 -1.30923,-3.13344 -1.27547,-3.83573 0.3437,-7.147874 2.30638,-4.717911 6.5706,-6.885149 10.57392,-5.374065 3.31453,1.251095 3.46082,2.207856 -1.54557,-10.107852 C 85.69339,20.44423 84.70252,18.975282 83.27921,19.347487 82.30064,19.603388 81.5,19.435217 81.5,18.973768 c 0,-0.927216 3.90129,-2.405807 4.57368,-1.733424 0.23262,0.232625 3.28239,7.361213 6.77725,15.841306 5.62303,13.643965 6.60143,15.382345 8.50169,15.105492 2.85303,-0.415666 2.76692,1.414102 -0.10262,2.180621 -1.48232,0.395962 -2.67649,0.02935 -3.5,-1.074498 -1.12834,-1.512442 -1.25,-1.517987 -1.25,-0.05698 0,4.310911 -9.57583,7.402675 -14.3437,4.631175 z m 8.65944,-1.030808 c 5.21526,-2.77766 6.22528,-8.386548 2.22971,-12.382112 -3.99556,-3.995563 -9.60445,-2.985541 -12.38211,2.229714 -1.79842,3.37667 -1.41166,5.221272 1.75974,8.392664 3.17139,3.171392 5.01599,3.558159 8.39266,1.759734 z m 18.3959,-7.848843 C 102.45533,39.673304 106.64964,28 115.31548,28 c 2.0329,0 7.18452,3.57299 7.18452,4.982939 0,0.460778 -3.01096,2.739369 -6.69101,5.063536 l -6.69102,4.225758 2.3018,1.863884 c 2.78078,2.251738 3.73016,2.294877 7.47901,0.339837 3.41465,-1.780754 4.80124,-1.095345 2.02822,1.002575 -2.80778,2.124216 -8.70505,1.8772 -11.71536,-0.490715 z m 4.8955,-8.049115 c 6.41407,-3.66976 7.05663,-4.513093 4.48661,-5.888526 -3.15565,-1.688855 -6.00997,-1.224863 -8.63921,1.404372 C 107.77871,34.630385 106.47907,40 108.12827,40 c 0.34555,0 3.03604,-1.377585 5.97887,-3.061301 z M 142.5,45 c 0,-0.55 0.9,-1 2,-1 1.8104,0 2,-0.666667 2,-7.032224 0,-6.374585 -0.20993,-7.109883 -2.24482,-7.862637 -2.82405,-1.044684 -7.4799,0.511972 -8.77629,2.934303 -1.69477,3.166705 -1.20386,10.730146 0.77111,11.880459 1.3681,0.796844 0.71341,1.025918 -3,1.04969 C 130.6375,44.986316 128.5,44.55 128.5,44 c 0,-0.55 0.9,-1 2,-1 1.82047,0 2,-0.666667 2,-7.426676 0,-6.23214 -0.28148,-7.500233 -1.75,-7.883998 -1.07666,-0.281362 -0.6919,-0.501957 1,-0.573325 2.19239,-0.09248 2.75,0.324879 2.75,2.058313 v 2.174314 l 2.31445,-2.174314 C 139.38079,26.763364 145.31222,26.212218 147.3,28.2 c 0.71416,0.714155 1.2,4.155556 1.2,8.5 0,5.822222 0.30365,7.3 1.5,7.3 0.825,0 1.5,0.45 1.5,1 0,0.55 -2.025,1 -4.5,1 -2.475,0 -4.5,-0.45 -4.5,-1 z"
       id="path117"
       inkscape:connector-curvature="0" />
  </g>
</svg>
